<svg width="100" height="125" xmlns="http://www.w3.org/2000/svg">

 <g>
  <title>background</title>
  <rect fill="none" id="canvas_background" height="602" width="802" y="-1" x="-1"/>
 </g>
 <g>
  <title>Layer 1</title>
  <path id="svg_1" d="m99.248,67.408c-0.15,-1.394 -12.177,-28.754 -11.925,-28.754c0.953,0 -15.461,-10.504 -15.461,-10.504c-2.099,-1.462 -9.215,-2.192 -11.947,-2.192l-16.406,2.955l-8.93,-1.478c0,0 -20.137,4.884 -22.025,5.974c-1.568,0.905 -4.705,2.683 -5.129,3.561c-0.486,1.005 -1.267,2.354 -1.267,2.354l-5.552,5.672c0,0 2.172,2.534 3.439,3.077s7.603,1.448 9.051,1.448s6.155,-1.81 6.155,-1.81l11.541,1.109l5.113,6.131l-4.51,14.196l-4.194,1.909c-0.709,0.338 -1.391,1.242 -1.144,2.099c0.298,1.035 1.566,1.482 2.956,1.4l7.254,0c2.161,0 3.756,-1.502 4.769,-2.859l8.903,-11.192l14.958,0l-5.069,9.088l-4.1,1.812c-0.827,0.508 -1.183,0.643 -1.183,1.598c0,1.715 2.218,1.557 3.937,1.557l5.781,0c1.97,0 3.745,-1.199 5.22,-2.675l10.955,-10.269l8.448,8.083c0,0 -2.942,1.679 -3.198,1.93c-0.936,0.4 -2.264,3.116 2.785,2.905l3.553,0.003c1.435,-0.122 6.554,-4.65 6.554,-4.65c0.584,-0.583 0.775,-1.478 0.668,-2.478z"/>
 </g>
</svg>